<?xml version="1.0" encoding="utf-8"?>
<svg viewBox="0 0 24 24" xmlns="http://www.w3.org/2000/svg">
  <circle transform="matrix(1, 0, 0, 0.9974150657653809, -471.6370544433594, -436.4488830566406)" cx="483.604" cy="449.596" r="12.002" style=""/>
  <path d="M 11.988 10.33 C 9.063 10.33 6.589 12.136 5.744 14.65 C 5.463 15.458 5.937 16.302 6.729 16.628 C 8.396 17.303 10.188 17.652 11.988 17.652 C 13.788 17.652 15.57 17.303 17.246 16.628 C 18.038 16.302 18.511 15.458 18.231 14.65 C 17.386 12.136 14.904 10.33 11.988 10.33 Z M 9.723 15.458 C 8.877 15.458 8.195 14.914 8.195 14.239 C 8.195 13.565 8.885 13.021 9.723 13.021 C 10.561 13.021 11.25 13.565 11.25 14.239 C 11.25 14.914 10.568 15.458 9.723 15.458 Z M 14.09 15.458 C 13.252 15.458 12.569 14.914 12.569 14.239 C 12.569 13.565 13.244 13.021 14.09 13.021 C 14.936 13.021 15.617 13.565 15.617 14.239 C 15.617 14.914 14.936 15.458 14.09 15.458 Z M 17.804 9.143 L 18.511 8.437 C 19.092 8.763 19.806 8.748 20.373 8.391 C 21.234 7.855 21.49 6.73 20.954 5.87 C 20.419 5.012 19.289 4.751 18.433 5.288 C 17.574 5.821 17.309 6.95 17.844 7.809 L 17.13 8.523 C 15.68 7.335 13.911 6.63 11.988 6.63 C 10.064 6.63 8.257 7.351 6.79 8.57 L 6.016 7.794 C 6.364 7.22 6.372 6.506 6.038 5.925 C 5.535 5.047 4.416 4.745 3.541 5.249 C 2.662 5.751 2.357 6.869 2.857 7.747 C 3.363 8.626 4.483 8.932 5.363 8.429 L 6.124 9.19 C 4.626 10.694 3.564 12.765 3.153 15.085 C 2.936 16.373 3.594 17.637 4.774 18.179 C 7.039 19.258 9.514 19.816 12.019 19.808 C 14.501 19.808 16.952 19.265 19.194 18.211 C 20.216 17.743 20.872 16.721 20.869 15.597 C 20.869 15.442 20.861 15.279 20.829 15.115 C 20.41 12.757 19.333 10.656 17.804 9.143 Z M 18.805 17.388 C 16.683 18.389 14.365 18.906 12.019 18.9 C 9.645 18.908 7.303 18.381 5.169 17.357 C 4.364 16.994 3.905 16.134 4.052 15.263 C 4.852 10.796 8.148 7.553 11.988 7.553 C 15.827 7.553 19.139 10.812 19.931 15.287 C 20.078 16.155 19.621 17.008 18.805 17.388 Z" style="fill: rgb(255, 255, 255);"/>
</svg>